<svg width="30" height="22" viewBox="0 0 30 22" fill="none" xmlns="http://www.w3.org/2000/svg">
	<path d="M9.03698 16.9656V6.50938C9.03698 6.025 9.0526 5.5375 9.03698 5.05313V5.03125L8.09948 5.96875H10.1839L9.24635 5.03125V15.4875C9.24635 15.9719 9.23073 16.4594 9.24635 16.9438V16.9656L10.1839 16.0281H8.09948C7.60885 16.0281 7.1401 16.4594 7.16198 16.9656C7.18385 17.475 7.57448 17.9031 8.09948 17.9031H10.1839C10.6901 17.9031 11.1214 17.475 11.1214 16.9656V6.50938C11.1214 6.025 11.1307 5.5375 11.1214 5.05313V5.03125C11.1214 4.525 10.6932 4.09375 10.1839 4.09375H8.09948C7.59323 4.09375 7.16198 4.52188 7.16198 5.03125V15.4875C7.16198 15.9719 7.1526 16.4594 7.16198 16.9438V16.9656C7.16198 17.4563 7.59323 17.925 8.09948 17.9031C8.60885 17.8813 9.03698 17.4906 9.03698 16.9656ZM5.69948 16.9656V6.50938C5.69948 6.025 5.70885 5.5375 5.69948 5.05313V5.03125C5.69948 4.54063 5.26823 4.07188 4.76198 4.09375C4.2526 4.11563 3.82448 4.50625 3.82448 5.03125V15.4875C3.82448 15.9719 3.8151 16.4594 3.82448 16.9438V16.9656C3.82448 17.4563 4.25573 17.925 4.76198 17.9031C5.26823 17.8813 5.69948 17.4906 5.69948 16.9656ZM12.5089 5.03438V15.4906C12.5089 15.975 12.4995 16.4625 12.5089 16.9469V16.9688C12.5089 17.4594 12.9401 17.9281 13.4464 17.9063C13.9557 17.8844 14.3839 17.4938 14.3839 16.9688V6.5125C14.3839 6.02813 14.3932 5.54063 14.3839 5.05625V5.03438C14.3839 4.54375 13.9526 4.075 13.4464 4.09688C12.9401 4.11875 12.5089 4.50938 12.5089 5.03438ZM17.5432 5.03438H18.9995V16.9656H17.5432V5.03438Z" fill="#4E2FA9" />
	<path d="M16.6057 5.03443V15.4907C16.6057 15.9751 16.5964 16.4626 16.6057 16.9469V16.9688C16.6057 17.4751 17.0339 17.9063 17.5432 17.9063H18.9995C19.5057 17.9063 19.937 17.4782 19.937 16.9688V6.51255C19.937 6.02818 19.9464 5.54068 19.937 5.0563V5.03443C19.937 4.52818 19.5089 4.09693 18.9995 4.09693H17.5432C17.0526 4.09693 16.5807 4.52818 16.6057 5.03443C16.6276 5.5438 17.0182 5.97193 17.5432 5.97193H18.9995L18.062 5.03443V15.4907C18.062 15.9751 18.0464 16.4626 18.062 16.9469V16.9688L18.9995 16.0313H17.5432L18.4807 16.9688V6.51255C18.4807 6.02818 18.4901 5.54068 18.4807 5.0563V5.03443C18.4807 4.5438 18.0495 4.07505 17.5432 4.09693C17.0339 4.1188 16.6057 4.50943 16.6057 5.03443V5.03443ZM22.512 5.03443H25.237V16.9657H22.512V5.03443Z" fill="#4E2FA9" />
	<path d="M23.4508 16.9655V6.50928C23.4508 6.0249 23.4664 5.5374 23.4508 5.05303V5.03115L22.5133 5.96865H25.2383L24.3008 5.03115V15.4874C24.3008 15.9718 24.2852 16.4593 24.3008 16.9437V16.9655L25.2383 16.028H22.5133C22.0227 16.028 21.5539 16.4593 21.5758 16.9655C21.5977 17.4749 21.9883 17.903 22.5133 17.903H25.2383C25.7445 17.903 26.1758 17.4749 26.1758 16.9655V6.50928C26.1758 6.0249 26.1852 5.5374 26.1758 5.05303V5.03115C26.1758 4.5249 25.7477 4.09365 25.2383 4.09365H22.5133C22.007 4.09365 21.5758 4.52178 21.5758 5.03115V15.4874C21.5758 15.9718 21.5664 16.4593 21.5758 16.9437V16.9655C21.5758 17.4562 22.007 17.9249 22.5133 17.903C23.0227 17.8812 23.4508 17.4905 23.4508 16.9655V16.9655ZM2.16016 5.60303V1.49365L1.22266 2.43115H5.33203C5.82266 2.43115 6.29141 1.9999 6.26953 1.49365C6.24766 0.984277 5.85703 0.556152 5.33203 0.556152H1.22266C0.716406 0.556152 0.285156 0.984277 0.285156 1.49365V5.60303C0.285156 6.09365 0.716406 6.5624 1.22266 6.54053C1.73203 6.51865 2.16016 6.12803 2.16016 5.60303ZM29.7164 5.60303V1.49365C29.7164 0.987402 29.2883 0.556152 28.7789 0.556152H24.6695C24.1789 0.556152 23.7102 0.987402 23.732 1.49365C23.7539 2.00303 24.1445 2.43115 24.6695 2.43115H28.7789L27.8414 1.49365V5.60303C27.8414 6.09365 28.2727 6.5624 28.7789 6.54053C29.2852 6.51865 29.7164 6.12803 29.7164 5.60303ZM0.285156 16.3968V20.5062C0.285156 21.0124 0.713281 21.4437 1.22266 21.4437H5.33203C5.82266 21.4437 6.29141 21.0124 6.26953 20.5062C6.24766 19.9968 5.85703 19.5687 5.33203 19.5687H1.22266L2.16016 20.5062V16.3968C2.16016 15.9062 1.72891 15.4374 1.22266 15.4593C0.716406 15.4812 0.285156 15.8718 0.285156 16.3968V16.3968ZM27.8414 16.3968V20.5062L28.7789 19.5687H24.6695C24.1789 19.5687 23.7102 19.9999 23.732 20.5062C23.7539 21.0155 24.1445 21.4437 24.6695 21.4437H28.7789C29.2852 21.4437 29.7164 21.0155 29.7164 20.5062V16.3968C29.7164 15.9062 29.2852 15.4374 28.7789 15.4593C28.2695 15.4812 27.8414 15.8718 27.8414 16.3968Z" fill="#4E2FA9" />
</svg>
