<svg width="142" height="143" viewBox="0 0 142 143" fill="none" xmlns="http://www.w3.org/2000/svg">
	<path d="M74.3778 139.513C37.0311 141.378 5.24336 112.615 3.37783 75.2686C1.5123 37.9219 30.2755 6.13412 67.6221 4.26859C104.595 2.42171 136.12 30.594 138.557 67.3951L138.622 68.5129L130.667 68.9103C129.021 35.9573 100.973 10.5781 68.0195 12.2241C35.0666 13.8702 9.68732 41.9182 11.3334 74.8712C12.963 107.495 40.4692 132.695 72.9933 131.599L73.9804 131.557L74.3778 139.513Z" fill="#FF6652" stroke="white" />
	<path d="M70.7724 4.46765C108.166 4.46765 138.479 34.7809 138.479 72.1741C138.479 109.567 108.166 139.881 70.7724 139.881C33.7531 139.881 3.67292 110.171 3.07502 73.2938L3.06595 72.1741H11.0314C11.0314 105.168 37.7784 131.915 70.7724 131.915C103.766 131.915 130.513 105.168 130.513 72.1741C130.513 39.51 104.299 12.9687 71.7604 12.4411L70.7724 12.4331V4.46765Z" fill="#20C9AC" stroke="white" />
	<path d="M70.7724 4.46765C108.166 4.46765 138.479 34.7809 138.479 72.1741C138.479 109.567 108.166 139.881 70.7724 139.881C33.3792 139.881 3.06595 109.567 3.06595 72.1741C3.06595 55.1123 9.4074 39.0318 20.6407 26.6655L21.0255 26.2453L26.8768 31.6501C16.7499 42.6137 11.0314 56.9417 11.0314 72.1741C11.0314 105.168 37.7784 131.915 70.7724 131.915C103.766 131.915 130.513 105.168 130.513 72.1741C130.513 39.51 104.299 12.9687 71.7604 12.4411L70.7724 12.4331V4.46765Z" fill="#4E2FA9" stroke="white" />
	<path d="M70.7724 4.46765C108.166 4.46765 138.479 34.7809 138.479 72.1741C138.479 109.567 108.166 139.881 70.7724 139.881C33.7531 139.881 3.67292 110.171 3.07502 73.2938L3.06595 72.1741H11.0314C11.0314 105.168 37.7784 131.915 70.7724 131.915C103.766 131.915 130.513 105.168 130.513 72.1741C130.513 39.51 104.299 12.9687 71.7604 12.4411L70.7724 12.4331V4.46765Z" fill="#20C9AC" stroke="white" />
</svg>
