<svg width="17" height="17" viewBox="0 0 17 17" fill="none" xmlns="http://www.w3.org/2000/svg">
<path d="M8.33333 0C3.73096 0 0 3.73096 0 8.33333C0 12.9357 3.73096 16.6667 8.33333 16.6667C12.9357 16.6667 16.6667 12.9357 16.6667 8.33333C16.6667 3.73096 12.9357 0 8.33333 0Z" fill="#20C9AC"/>
<path fill-rule="evenodd" clip-rule="evenodd" d="M11.4226 6.07757C11.748 6.40301 11.748 6.93065 11.4226 7.25609L8.08926 10.5894C7.76382 10.9149 7.23618 10.9149 6.91074 10.5894L5.24408 8.92275C4.91864 8.59731 4.91864 8.06968 5.24408 7.74424C5.56951 7.4188 6.09715 7.4188 6.42259 7.74424L7.5 8.82165L10.2441 6.07757C10.5695 5.75214 11.0972 5.75214 11.4226 6.07757Z" fill="white"/>
</svg>
