<svg width="25" height="25" viewBox="0 0 25 25" fill="none" xmlns="http://www.w3.org/2000/svg">
	<path d="M13.4375 11.5625H23.0938C22.8646 9.02083 21.8385 6.81771 20.0156 4.95312C18.1927 3.08854 16 2.07292 13.4375 1.90625V11.5625ZM11.5625 23.0938V1.90625C8.83333 2.13542 6.53646 3.27083 4.67188 5.3125C2.80729 7.35417 1.875 9.75 1.875 12.5C1.875 15.25 2.80729 17.6458 4.67188 19.6875C6.53646 21.7292 8.83333 22.8646 11.5625 23.0938ZM13.4375 23.0938C16 22.9271 18.1927 21.9115 20.0156 20.0469C21.8385 18.1823 22.8646 15.9792 23.0938 13.4375H13.4375V23.0938ZM12.5 25C10.7708 25 9.14583 24.6719 7.625 24.0156C6.10417 23.3594 4.78125 22.4688 3.65625 21.3438C2.53125 20.2188 1.64062 18.8958 0.984375 17.375C0.328125 15.8542 0 14.2292 0 12.5C0 10.7708 0.328125 9.14583 0.984375 7.625C1.64062 6.10417 2.53125 4.78125 3.65625 3.65625C4.78125 2.53125 6.10417 1.64062 7.625 0.984375C9.14583 0.328125 10.7708 0 12.5 0C14.2292 0 15.8542 0.328125 17.375 0.984375C18.8958 1.64062 20.2188 2.53125 21.3438 3.65625C22.4688 4.78125 23.3594 6.10417 24.0156 7.625C24.6719 9.14583 25 10.7708 25 12.5C25 14.2292 24.6719 15.8542 24.0156 17.375C23.3594 18.8958 22.4688 20.2188 21.3438 21.3438C20.2188 22.4688 18.8958 23.3594 17.375 24.0156C15.8542 24.6719 14.2292 25 12.5 25Z" fill="#4E2FA9" />
</svg>
