<svg width="20" height="18" viewBox="0 0 20 18" fill="none" xmlns="http://www.w3.org/2000/svg">
	<path d="M10 14.35C11.2 14.35 12.2083 13.9417 13.025 13.125C13.8417 12.3083 14.25 11.2917 14.25 10.075C14.25 8.875 13.8417 7.87083 13.025 7.0625C12.2083 6.25417 11.2 5.85 10 5.85C8.78333 5.85 7.77083 6.25417 6.9625 7.0625C6.15417 7.87083 5.75 8.875 5.75 10.075C5.75 11.2917 6.15417 12.3083 6.9625 13.125C7.77083 13.9417 8.78333 14.35 10 14.35ZM10 12.85C9.2 12.85 8.54167 12.5875 8.025 12.0625C7.50833 11.5375 7.25 10.875 7.25 10.075C7.25 9.29167 7.50833 8.64167 8.025 8.125C8.54167 7.60833 9.2 7.35 10 7.35C10.7833 7.35 11.4375 7.60833 11.9625 8.125C12.4875 8.64167 12.75 9.29167 12.75 10.075C12.75 10.875 12.4875 11.5375 11.9625 12.0625C11.4375 12.5875 10.7833 12.85 10 12.85ZM1.5 18C1.1 18 0.75 17.85 0.45 17.55C0.15 17.25 0 16.9 0 16.5V3.675C0 3.29167 0.15 2.94583 0.45 2.6375C0.75 2.32917 1.1 2.175 1.5 2.175H5.175L7 0H13L14.825 2.175H18.5C18.8833 2.175 19.2292 2.32917 19.5375 2.6375C19.8458 2.94583 20 3.29167 20 3.675V16.5C20 16.9 19.8458 17.25 19.5375 17.55C19.2292 17.85 18.8833 18 18.5 18H1.5ZM18.5 16.5V3.675H14.125L12.3 1.5H7.7L5.875 3.675H1.5V16.5H18.5Z" fill="#4E2FA9" />
</svg>
