<svg width="40" height="40" viewBox="0 0 40 40" fill="none" xmlns="http://www.w3.org/2000/svg">
	<rect width="40" height="40" rx="6" fill="#E9FAF7" />
	<path d="M27.7099 16.6931C26.2884 17.3121 24.6806 16.8859 23.7318 15.7569L16.6932 18.8175C17.0073 19.6107 17.026 20.5095 16.6995 21.3338L23.7315 24.3909C24.6769 23.2619 26.2881 22.8357 27.7096 23.4548C29.4389 24.2074 30.2319 26.2166 29.4793 27.9459C28.7266 29.6753 26.7174 30.4683 24.9881 29.7156C23.5232 29.078 22.733 27.5385 22.9788 26.033L15.573 22.814C14.475 23.6383 12.9385 23.7472 11.7069 22.9726C10.1114 21.9679 9.62934 19.8624 10.6339 18.2636C11.6386 16.6649 13.7441 16.1861 15.3429 17.1906C15.4175 17.2372 15.4891 17.2869 15.5574 17.3398L22.9788 14.1113C22.7299 12.6059 23.5231 11.0663 24.988 10.4287C26.7174 9.67604 28.7296 10.469 29.4792 12.1984C30.2319 13.931 29.4386 15.9402 27.7095 16.6931H27.7099Z" fill="#20C9AC" />
</svg>
