<svg width="55" height="44" viewBox="0 0 55 44" fill="none" xmlns="http://www.w3.org/2000/svg">
	<path d="M13.7614 34.625C10.6421 34.625 7.65051 33.4397 5.44482 31.33C3.23914 29.2202 2 26.3587 2 23.375C2 20.3913 3.23914 17.5298 5.44482 15.4201C7.65051 13.3103 10.6421 12.125 13.7614 12.125C14.4981 8.84295 16.6533 5.95871 19.7528 4.10679C21.2876 3.18981 23.008 2.55387 24.8158 2.23528C26.6236 1.91669 28.4835 1.9217 30.2891 2.25C32.0948 2.57831 33.811 3.22348 35.3396 4.1487C36.8682 5.07392 38.1794 6.26105 39.1983 7.64232C40.2171 9.02359 40.9237 10.572 41.2777 12.199C41.6317 13.826 41.6261 15.4999 41.2614 17.125H43.7614C46.082 17.125 48.3076 18.0469 49.9486 19.6878C51.5895 21.3288 52.5114 23.5544 52.5114 25.875C52.5114 28.1956 51.5895 30.4212 49.9486 32.0622C48.3076 33.7031 46.082 34.625 43.7614 34.625H41.2614" stroke="#84818A" stroke-width="3.3" stroke-linecap="round" stroke-linejoin="round" />
	<path d="M18.7617 27.125L26.2617 19.625L33.7617 27.125" stroke="#84818A" stroke-width="3.3" stroke-linecap="round" stroke-linejoin="round" />
	<path d="M26.2617 19.625V42.125" stroke="#84818A" stroke-width="3.3" stroke-linecap="round" stroke-linejoin="round" />
</svg>
