<svg width="34" height="34" viewBox="0 0 34 34" fill="none" xmlns="http://www.w3.org/2000/svg">
	<path d="M12.2513 32.8332H21.7513C29.668 32.8332 32.8346 29.6665 32.8346 21.7498V12.2498C32.8346 4.33317 29.668 1.1665 21.7513 1.1665H12.2513C4.33464 1.1665 1.16797 4.33317 1.16797 12.2498V21.7498C1.16797 29.6665 4.33464 32.8332 12.2513 32.8332Z" stroke="#9EA3AE" stroke-width="1.5" stroke-linecap="round" stroke-linejoin="round" />
	<path d="M12.2487 13.8333C13.9976 13.8333 15.4154 12.4156 15.4154 10.6667C15.4154 8.91776 13.9976 7.5 12.2487 7.5C10.4998 7.5 9.08203 8.91776 9.08203 10.6667C9.08203 12.4156 10.4998 13.8333 12.2487 13.8333Z" stroke="#9EA3AE" stroke-width="1.5" stroke-linecap="round" stroke-linejoin="round" />
	<path d="M2.22656 28.0042L10.0324 22.7634C11.2832 21.9242 13.0882 22.0192 14.2124 22.9851L14.7349 23.4442C15.9699 24.5051 17.9649 24.5051 19.1999 23.4442L25.7866 17.7917C27.0216 16.7309 29.0166 16.7309 30.2516 17.7917L32.8324 20.0084" stroke="#9EA3AE" stroke-width="1.5" stroke-linecap="round" stroke-linejoin="round" />
</svg>
