<svg width="16" height="16" viewBox="0 0 16 16" fill="none" xmlns="http://www.w3.org/2000/svg">
<path d="M13.3546 8.70529C13.3846 8.48029 13.3996 8.24779 13.3996 8.00029C13.3996 7.76029 13.3846 7.52029 13.3471 7.29529L14.8696 6.11029C15.0046 6.00529 15.0421 5.80279 14.9596 5.65279L13.5196 3.16279C13.4296 2.99779 13.2421 2.94529 13.0771 2.99779L11.2846 3.71779C10.9096 3.43279 10.5121 3.19279 10.0696 3.01279L9.79959 1.10779C9.76959 0.927793 9.61959 0.800293 9.43959 0.800293H6.55959C6.37959 0.800293 6.23709 0.927793 6.20709 1.10779L5.93709 3.01279C5.49459 3.19279 5.08959 3.44029 4.72209 3.71779L2.92959 2.99779C2.76459 2.93779 2.57709 2.99779 2.48709 3.16279L1.05459 5.65279C0.964594 5.81029 0.994594 6.00529 1.14459 6.11029L2.66709 7.29529C2.62959 7.52029 2.59959 7.76779 2.59959 8.00029C2.59959 8.23279 2.61459 8.48029 2.65209 8.70529L1.12959 9.89029C0.994594 9.99529 0.957094 10.1978 1.03959 10.3478L2.47959 12.8378C2.56959 13.0028 2.75709 13.0553 2.92209 13.0028L4.71459 12.2828C5.08959 12.5678 5.48709 12.8078 5.92959 12.9878L6.19959 14.8928C6.23709 15.0728 6.37959 15.2003 6.55959 15.2003H9.43959C9.61959 15.2003 9.76959 15.0728 9.79209 14.8928L10.0621 12.9878C10.5046 12.8078 10.9096 12.5678 11.2771 12.2828L13.0696 13.0028C13.2346 13.0628 13.4221 13.0028 13.5121 12.8378L14.9521 10.3478C15.0421 10.1828 15.0046 9.99529 14.8621 9.89029L13.3546 8.70529ZM7.99959 10.7003C6.51459 10.7003 5.29959 9.48529 5.29959 8.00029C5.29959 6.51529 6.51459 5.30029 7.99959 5.30029C9.48459 5.30029 10.6996 6.51529 10.6996 8.00029C10.6996 9.48529 9.48459 10.7003 7.99959 10.7003Z" fill="#4E2FA9"/>
</svg>
