<svg width="32" height="33" viewBox="0 0 32 33" fill="none" xmlns="http://www.w3.org/2000/svg">
<rect y="0.5" width="32" height="32" rx="8" fill="#F6F6F6"/>
<path d="M11.5167 15.4917C12.7167 17.85 14.65 19.775 17.0083 20.9833L18.8417 19.15C19.0667 18.925 19.4 18.85 19.6917 18.95C20.625 19.2583 21.6333 19.425 22.6667 19.425C23.125 19.425 23.5 19.8 23.5 20.2583V23.1667C23.5 23.625 23.125 24 22.6667 24C14.8417 24 8.5 17.6583 8.5 9.83333C8.5 9.375 8.875 9 9.33333 9H12.25C12.7083 9 13.0833 9.375 13.0833 9.83333C13.0833 10.875 13.25 11.875 13.5583 12.8083C13.65 13.1 13.5833 13.425 13.35 13.6583L11.5167 15.4917Z" fill="#84818A"/>
</svg>
