<svg width="18" height="21" viewBox="0 0 18 21" fill="none" xmlns="http://www.w3.org/2000/svg">
<path d="M16.413 8.95192L9.05029 17.786C7.63538 19.4837 5.11432 19.7127 3.41664 18.2978C1.71896 16.8829 1.48993 14.3618 2.90484 12.6641L10.9077 3.06188C11.7913 2.00179 13.3687 1.85849 14.4288 2.74201C15.4889 3.62553 15.6322 5.20295 14.7487 6.26304L8.02621 14.3289C7.67409 14.7514 7.0403 14.809 6.6178 14.4569C6.1953 14.1048 6.13772 13.471 6.48985 13.0485L12.5721 5.75076L11.4198 4.79041L5.33758 12.0881C4.45406 13.1482 4.59736 14.7256 5.65745 15.6092C6.71754 16.4927 8.29497 16.3494 9.17849 15.2893L15.9009 7.22339C17.3158 5.52571 17.0868 3.00465 15.3891 1.58974C13.6915 0.174825 11.1704 0.403853 9.75548 2.10153L1.75257 11.7038C-0.193735 14.0391 0.12102 17.5038 2.45629 19.4501C4.79156 21.3964 8.25626 21.0816 10.2026 18.7464L17.5652 9.91227L16.413 8.95192Z" fill="#84818A"/>
</svg>
