<svg width="16" height="13" viewBox="0 0 16 13" fill="none" xmlns="http://www.w3.org/2000/svg">
<path d="M6.3125 0.0625C6.00781 0.0625 5.74414 0.173828 5.52148 0.396484C5.29883 0.619141 5.1875 0.882812 5.1875 1.1875V2.3125H0.125V12.4375H15.875V2.3125H10.8125V1.1875C10.8125 0.882812 10.7012 0.619141 10.4785 0.396484C10.2559 0.173828 9.99219 0.0625 9.6875 0.0625H6.3125ZM6.3125 1.1875H9.6875V2.3125H6.3125V1.1875ZM1.25 3.4375H14.75V6.25H12.5V5.6875H10.25V6.25H5.75V5.6875H3.5V6.25H1.25V3.4375ZM1.25 7.375H3.5V7.9375H5.75V7.375H10.25V7.9375H12.5V7.375H14.75V11.3125H1.25V7.375Z" fill="#2E2C34"/>
</svg>
