<svg width="16" height="12" viewBox="0 0 16 12" fill="none" xmlns="http://www.w3.org/2000/svg">
<path d="M14.6667 0H1.33333C0.6 0 0 0.6 0 1.33333V10.6667C0 11.4 0.6 12 1.33333 12H14.6667C15.4 12 15.9933 11.4 15.9933 10.6667L16 1.33333C16 0.6 15.4 0 14.6667 0ZM5.33333 2C6.44 2 7.33333 2.89333 7.33333 4C7.33333 5.10667 6.44 6 5.33333 6C4.22667 6 3.33333 5.10667 3.33333 4C3.33333 2.89333 4.22667 2 5.33333 2ZM9.33333 10H1.33333V9.33333C1.33333 8 4 7.26667 5.33333 7.26667C6.66667 7.26667 9.33333 8 9.33333 9.33333V10ZM11.9 7.33333H12.9933L14 8.66667L12.6733 9.99333C11.8 9.34 11.1533 8.40667 10.8533 7.33333C10.7333 6.90667 10.6667 6.46 10.6667 6C10.6667 5.54 10.7333 5.09333 10.8533 4.66667C11.1533 3.58667 11.8 2.66 12.6733 2.00667L14 3.33333L12.9933 4.66667H11.9C11.7533 5.08667 11.6667 5.53333 11.6667 6C11.6667 6.46667 11.7533 6.91333 11.9 7.33333Z" fill="#4E2FA9"/>
</svg>
