<svg width="14" height="16" viewBox="0 0 14 16" fill="none" xmlns="http://www.w3.org/2000/svg">
<path d="M7 0.375C6.66016 0.375 6.36133 0.486328 6.10352 0.708984C5.85742 0.908203 5.66992 1.17188 5.54102 1.5H0.8125V15.5625H13.1875V1.5H8.45898C8.33008 1.17188 8.14258 0.908203 7.89648 0.708984C7.63867 0.486328 7.33984 0.375 7 0.375ZM7 1.5C7.15234 1.5 7.28125 1.55859 7.38672 1.67578C7.50391 1.78125 7.5625 1.91016 7.5625 2.0625V2.625H9.25V3.75H4.75V2.625H6.4375V2.0625C6.4375 1.91016 6.49023 1.78125 6.5957 1.67578C6.71289 1.55859 6.84766 1.5 7 1.5ZM1.9375 2.625H3.625V4.875H10.375V2.625H12.0625V14.4375H1.9375V2.625ZM9.9707 6.7207L6.4375 10.2539L4.5918 8.4082L3.7832 9.2168L6.0332 11.4668L6.4375 11.8535L6.8418 11.4668L10.7793 7.5293L9.9707 6.7207Z" fill="#2E2C34"/>
</svg>
