<svg width="20" height="21" viewBox="0 0 20 21" fill="none" xmlns="http://www.w3.org/2000/svg">
<path d="M9.9974 2.1665C5.39502 2.1665 1.66406 5.89746 1.66406 10.4998C1.66406 15.1022 5.39502 18.8332 9.9974 18.8332C14.5998 18.8332 18.3307 15.1022 18.3307 10.4998C18.3307 5.89746 14.5998 2.1665 9.9974 2.1665Z" fill="#20C9AC"/>
<path fill-rule="evenodd" clip-rule="evenodd" d="M13.0867 8.24408C13.4121 8.56951 13.4121 9.09715 13.0867 9.42259L9.75332 12.7559C9.42788 13.0814 8.90024 13.0814 8.57481 12.7559L6.90814 11.0893C6.5827 10.7638 6.5827 10.2362 6.90814 9.91074C7.23358 9.58531 7.76121 9.58531 8.08665 9.91074L9.16406 10.9882L11.9081 8.24408C12.2336 7.91864 12.7612 7.91864 13.0867 8.24408Z" fill="white"/>
</svg>
