<svg width="44" height="44" viewBox="0 0 44 44" fill="none" xmlns="http://www.w3.org/2000/svg">
<rect width="44" height="43.3663" rx="4" fill="#FFF1E7"/>
<path d="M21.926 3.95079C16.7079 3.97024 12.2344 8.10887 12.2344 13.4521V13.4521C12.2344 15.653 14.0186 17.4373 16.2195 17.4373H27.7577C29.9669 17.4373 31.7577 15.6476 31.7577 13.4384C31.7577 13.0113 31.7577 12.4679 31.7577 11.6661C31.7577 9.53539 30.9779 8.35434 30.3215 7.73759C29.8067 7.25395 29.2084 6.83603 28.6886 6.35772C25.8143 3.71255 21.9298 3.95087 21.9298 3.95087" fill="#4C4846"/>
<path d="M14.5685 13.4513C14.5685 11.6225 12.9836 9.36933 12.5324 11.1416C12.4047 11.6435 12.3177 12.1618 12.275 12.6934C12.2262 13.2935 12.2467 13.7187 12.2452 16.2709C12.2448 16.9135 12.7649 17.4365 13.4075 17.4365V17.4365C14.0487 17.4365 14.5685 16.9167 14.5685 16.2754V13.4513V13.4513Z" fill="#3D3938"/>
<path d="M14.6395 17.6075C14.6395 16.687 13.984 15.7554 13.1387 16.1198C12.5288 16.3828 12.0859 16.934 12.0859 17.6075C12.0859 18.2809 12.5288 18.8321 13.1387 19.0952C13.984 19.4597 14.6395 18.528 14.6395 17.6075V17.6075Z" fill="#DD9A5E"/>
<path d="M29.3594 17.6075C29.3594 16.687 30.0149 15.7554 30.8601 16.1198C31.4701 16.3828 31.9129 16.934 31.9129 17.6075C31.9129 18.2809 31.4701 18.8321 30.8602 19.0952C30.0149 19.4597 29.3594 18.528 29.3594 17.6075V17.6075Z" fill="#DD9A5E"/>
<path d="M13.4909 17.805C12.8417 17.6566 11.9662 17.8333 12.3205 18.3973C12.6767 18.9643 13.3968 19.3427 14.1886 19.2481C14.4672 19.2148 14.6441 18.9537 14.6441 18.673V18.673C14.6441 18.2173 14.1777 17.8948 13.7247 17.8445C13.6457 17.8358 13.5676 17.8225 13.4909 17.805Z" fill="#D18C54"/>
<path d="M30.2787 17.8446C29.8258 17.8948 29.3594 18.2173 29.3594 18.673V18.673C29.3594 18.9537 29.5362 19.2148 29.8148 19.2482C30.6074 19.3432 31.3272 18.9646 31.6832 18.3974C32.0372 17.8333 31.1618 17.6566 30.5125 17.805C30.4358 17.8226 30.3577 17.8358 30.2787 17.8446Z" fill="#D18C54"/>
<path d="M35.8223 40.5015C34.0958 31.9553 34.2291 32.5094 34.0759 32.1078C33.7376 31.2311 33.1167 30.6494 32.2787 30.2624C32.0169 30.1459 31.5989 30.0387 31.607 30.041C31.1702 29.8894 28.9692 29.1253 27.8191 28.7259C27.388 28.5763 26.9882 28.3498 26.638 28.0573L25.5569 27.1542C25.3836 27.0094 25.2835 26.7953 25.2835 26.5695V26.5695C25.2835 26.005 24.6847 25.6292 24.1432 25.789C22.7619 26.1968 21.2656 26.1961 19.8939 25.7992C19.3344 25.6373 18.7164 26.0255 18.7165 26.608V26.608C18.7166 26.8484 18.6065 27.0756 18.4179 27.2247L17.2024 28.1853C16.9224 28.4066 16.6065 28.5783 16.2685 28.6928L15.7812 28.8579C15.7811 28.858 15.781 28.858 15.7808 28.858H15.7792C15.779 28.858 15.7789 28.8582 15.779 28.8584V28.8584C15.7791 28.8585 15.7793 28.8586 15.7791 28.8586C15.7654 28.8634 12.282 30.08 12.3937 30.041C12.2413 30.0853 11.9283 30.1763 11.9484 30.1705C11.1014 30.4815 10.4024 31.069 10.0129 31.8983C9.76823 32.4261 9.84778 32.2379 8.52986 38.7614C8.03705 41.201 7.96016 41.389 8.0153 41.8891C8.10365 42.6988 8.58623 43.0417 9.03403 43.1873C9.55135 43.3554 10.1299 43.2974 10.6739 43.2974C20.3686 43.2974 25.2971 43.2974 33.5015 43.2974C33.9321 43.2974 34.3791 43.3307 34.7984 43.2326C35.3204 43.1104 35.9728 42.7511 35.9984 41.6917C35.9994 41.6483 35.9308 41.0912 35.8223 40.5015Z" fill="#DD9A5E"/>
<path d="M24.4136 27.7617C24.9107 27.2848 25.687 27.2581 26.2157 27.6998V27.6998C26.7555 28.1507 26.8591 28.9403 26.454 29.5153L24.8358 31.8118C24.5141 32.2263 23.8832 32.2335 23.5518 31.8264V31.8264C22.6755 30.866 22.7248 29.3821 23.6629 28.482L24.4136 27.7617Z" fill="#DADADA"/>
<path d="M19.5717 27.803C19.0816 27.3347 18.3214 27.2992 17.7898 27.7197V27.7197C17.224 28.1672 17.1064 28.9787 17.5219 29.5684L19.1023 31.8114C19.424 32.2258 20.055 32.233 20.3863 31.826V31.826C21.2686 30.8673 21.2208 29.3788 20.2788 28.4787L19.5717 27.803Z" fill="#DADADA"/>
<path d="M25.2866 25.9788C25.2865 25.4028 24.6754 25.635 24.1224 25.7961C22.7477 26.1967 21.2618 26.1927 19.9007 25.8C19.3394 25.638 18.7194 26.0276 18.7195 26.6119L18.7196 26.9883C18.7196 26.9885 18.7195 26.9887 18.7194 26.9889V26.9889C18.719 26.9891 18.719 26.9896 18.7193 26.9899L20.4877 28.6796C21.32 29.475 22.6312 29.4736 23.4619 28.6765L25.0475 27.1552C25.2002 27.0086 25.2866 26.1904 25.2866 25.9788V25.9788Z" fill="#DD9A5E"/>
<path d="M19.3761 27.6175C19.8845 28.1033 20.7273 27.743 20.7273 27.0398V26.7158C20.7273 26.2951 20.4221 25.941 20.0162 25.831C19.9777 25.8206 19.9393 25.8098 19.9012 25.7988C19.3397 25.6371 18.7194 26.0276 18.7195 26.6119L18.7196 26.9883C18.7196 26.9885 18.7195 26.9887 18.7194 26.9889V26.9889C18.719 26.9891 18.719 26.9896 18.7193 26.9899L19.3761 27.6175Z" fill="#D18C54"/>
<path d="M35.8223 40.4998C34.0919 31.9344 34.2295 32.5086 34.076 32.1061C33.7444 31.2465 33.1369 30.6577 32.2787 30.2607C31.9996 30.1392 31.5989 30.037 31.607 30.0393C31.3996 29.9673 30.7538 29.7431 30.0144 29.4864C28.3291 28.9013 26.4597 29.5028 25.4321 30.9611L24.8325 31.8121C24.5108 32.2266 23.8799 32.2338 23.5485 31.8267V31.8267C22.7016 30.8986 21.2352 30.9022 20.3844 31.8267V31.8267C20.053 32.2338 19.4221 32.2266 19.1004 31.8121L17.2767 29.2239C16.9817 28.8053 16.4464 28.6308 15.9614 28.7952L15.7812 28.8563C15.7811 28.8563 15.781 28.8563 15.7808 28.8563H15.7793C15.779 28.8563 15.7789 28.8565 15.779 28.8567V28.8567C15.7791 28.8569 15.7793 28.857 15.7791 28.857C15.7649 28.862 12.282 30.0784 12.3937 30.0393C12.2413 30.0836 11.9284 30.1746 11.9484 30.1689C11.1012 30.4803 10.4032 31.0663 10.0129 31.8968C9.76894 32.4226 9.85606 32.1954 8.52987 38.76C8.03659 41.202 7.96024 41.3883 8.0153 41.8877C8.10385 42.6991 8.58831 43.0418 9.03692 43.1868C9.55263 43.3535 10.1194 43.2959 10.6614 43.2959C14.4058 43.2959 27.241 43.2959 33.3348 43.2959C33.8785 43.2959 34.4487 43.3518 34.9666 43.186C35.4507 43.0309 35.9753 42.6468 35.9984 41.6903C36.0091 41.2571 35.9307 41.0886 35.8223 40.4998Z" fill="#EDEDED"/>
<path d="M10.0105 41.5631C10.0196 41.2021 11.7884 31.7781 11.8109 31.6969C11.9114 31.3228 12.0587 30.9812 12.2638 30.6733C12.3698 30.5141 11.7644 30.223 11.948 30.169V30.169C11.2357 30.4309 10.6128 30.9004 10.2136 31.5285C9.7715 32.2236 9.91469 31.9038 8.17789 40.5001C8.07955 41.0343 7.95718 41.3653 8.01482 41.8878C8.10336 42.6992 8.58782 43.0419 9.03643 43.187C9.55214 43.3537 10.1264 43.2961 10.6684 43.2961H11.8555C10.5706 43.2961 9.98472 42.6298 10.0105 41.5631Z" fill="#DADADA"/>
<path d="M22.9018 31.1133C22.3369 30.4999 21.7522 30.3387 21.1871 30.952C21.0905 31.0568 20.9826 31.1739 20.8624 31.3043C20.5173 31.6788 20.4823 32.2483 20.7829 32.6594V32.6594C20.9837 32.9339 21.3034 33.0962 21.6436 33.0962C21.8788 33.0962 22.1069 33.0962 22.3397 33.0962C22.6799 33.0962 22.9989 32.931 23.1952 32.6531V32.6531C23.48 32.2499 23.4426 31.7005 23.1081 31.3374C23.0349 31.2578 22.9662 31.1833 22.9018 31.1133Z" fill="#70BBEF"/>
<path d="M30.5747 36.5018C30.5747 36.3804 30.5799 36.2612 30.5947 36.1407C30.6777 35.4651 31.0487 32.9959 32.2461 30.7493C32.3622 30.5313 32.2836 30.254 32.0518 30.1689V30.1689C32.0437 30.1665 31.5984 30.037 31.6065 30.0393V30.0393C29.2894 29.2349 26.7388 30.7068 25.5855 32.8714C24.9701 34.0264 24.1412 35.2069 23.0422 36.1308C22.4425 36.635 21.5584 36.6356 20.9577 36.1326C18.5755 34.1382 17.4355 30.9513 17 29.4102C16.8675 28.9412 16.3674 28.6575 15.9058 28.8139L15.7805 28.8563C15.7804 28.8564 15.7803 28.8564 15.7802 28.8564H15.7786C15.7784 28.8564 15.7783 28.8566 15.7784 28.8568V28.8568C15.7784 28.8569 15.7786 28.857 15.7785 28.857C15.7642 28.862 12.323 30.0638 12.393 30.0393C12.2406 30.0837 11.9277 30.1747 11.9477 30.1689V30.1689C11.716 30.2541 11.6373 30.5314 11.7534 30.7492C12.9508 32.9959 13.3218 35.465 13.4048 36.1406C13.4196 36.2611 13.4248 36.3803 13.4248 36.5017C13.4248 36.9812 13.4248 38.0981 13.4248 39.2954C13.4248 41.5045 15.2155 43.2957 17.4246 43.2957C20.5102 43.2957 23.6699 43.2957 26.5755 43.2957C28.7843 43.2957 30.5747 41.5051 30.5747 39.2962C30.5747 38.0987 30.5747 36.9813 30.5747 36.5018Z" fill="#EA4E4E"/>
<path d="M13.4248 42.2704C13.4248 42.8379 13.8848 43.2965 14.4523 43.2965V43.2965C15.0198 43.2965 15.4799 42.8365 15.4799 42.269V36.2997C15.4799 36.151 15.4719 36.0038 15.4507 35.8566C15.3557 35.195 15.0073 33.1401 14.1055 31.0646C13.7481 30.2423 11.0859 30.4169 11.9477 30.1695V30.1695V30.1695C11.716 30.2547 11.6373 30.5322 11.7534 30.75C12.9508 32.9967 13.3218 35.4658 13.4048 36.1413C13.4196 36.2619 13.4248 36.381 13.4248 36.5025C13.4248 37.4052 13.4248 40.5669 13.4248 42.2704Z" fill="#D83D3D"/>
<path d="M20.9575 36.1337C21.5583 36.6367 22.4424 36.636 23.0421 36.1319V36.1319C23.4306 35.8052 23.5533 35.2696 23.404 34.7844L23.1461 33.9463C22.9905 33.4407 22.5232 33.0957 21.9942 33.0957V33.0957C21.4652 33.0957 20.9983 33.4407 20.8427 33.9462L20.5895 34.7689C20.4382 35.2606 20.563 35.8035 20.9575 36.1337V36.1337Z" fill="#3AA8D8"/>
<path d="M22.4477 31.5099C22.6774 31.2609 22.6784 30.8776 22.4501 30.6274V30.6274C22.1921 30.3447 22.0123 30.0561 21.753 30.3376C21.5888 30.5158 21.3124 30.8157 20.8624 31.3041C20.5173 31.6786 20.4823 32.2481 20.7829 32.6591L20.8878 32.8026C21.0227 32.987 21.2374 33.096 21.4659 33.096C21.5751 33.096 21.6824 33.096 21.7888 33.096C22.2408 33.096 22.5013 32.5827 22.2345 32.2179V32.2179C22.1211 32.0628 22.1333 31.8505 22.2638 31.7091L22.4477 31.5099Z" fill="#3AA8D8"/>
<path d="M22.5468 34.1927C22.7121 33.6465 22.3118 33.0957 21.7412 33.0957V33.0957C21.3678 33.0957 21.0295 33.3392 20.9197 33.6961L20.5695 34.834C20.4305 35.2856 20.5931 35.8576 20.969 36.1438V36.1438C21.4536 36.5129 21.9744 36.0842 22.1508 35.5011L22.5468 34.1927Z" fill="#1990BA"/>
<path d="M26.4224 38.0079C27.0008 38.0079 27.4698 37.5458 27.4698 36.9757C27.4698 36.4055 27.0008 35.9434 26.4224 35.9434C25.8439 35.9434 25.375 36.4055 25.375 36.9757C25.375 37.5458 25.8439 38.0079 26.4224 38.0079Z" fill="#70BBEF"/>
<path d="M26.4164 36.9749C26.1726 36.5591 25.7592 36.0404 25.5127 36.4546C25.3336 36.7555 25.3057 37.1439 25.5089 37.491C25.7123 37.838 26.0674 38.0083 26.4212 38.0059C26.9032 38.0027 26.6603 37.3907 26.4164 36.9749V36.9749Z" fill="#3AA8D8"/>
<path d="M28.0643 41.4374H24.7769C24.4859 41.4374 24.25 41.2048 24.25 40.9181V38.5271C24.25 38.2403 24.4859 38.0078 24.7769 38.0078H28.0643C28.3553 38.0078 28.5912 38.2403 28.5912 38.5271V40.9181C28.5912 41.2048 28.3553 41.4374 28.0643 41.4374Z" fill="#E6E7E8"/>
<path d="M26.4206 40.9181V38.5271C26.4206 38.2403 26.6565 38.0078 26.9474 38.0078H24.7769C24.4859 38.0078 24.25 38.2403 24.25 38.5271V40.9181C24.25 41.2048 24.4859 41.4374 24.7769 41.4374H26.9474C26.6565 41.4374 26.4206 41.2048 26.4206 40.9181Z" fill="#DADADA"/>
<path d="M29.0995 13.0268C29.2891 13.0449 29.435 13.1999 29.435 13.3877V19.0048C29.435 21.8103 27.8297 24.3157 25.3296 25.5579C20.5826 27.9148 14.5625 24.6206 14.5625 19.0048V15.8308C14.5625 14.3937 15.8565 13.2974 17.2996 13.5026C19.5724 13.8259 22.8898 13.7004 25.7847 11.2616C26.0821 11.0111 26.5335 11.092 26.7235 11.4292C27.082 12.0658 27.7953 12.9028 29.0995 13.0268Z" fill="#EDAE6B"/>
<path d="M16.5712 19.004V16.8495C16.5712 15.0955 14.5625 14.0759 14.5625 15.8299V15.8299V19.004C14.5625 19.7062 14.6566 20.3721 14.8306 20.9952C15.281 22.6081 16.5712 20.6785 16.5712 19.004V19.004Z" fill="#DD9A5E"/>
</svg>
