<svg width="32" height="33" viewBox="0 0 32 33" fill="none" xmlns="http://www.w3.org/2000/svg">
<rect y="0.5" width="32" height="32" rx="8" fill="#F6F6F6"/>
<path d="M14.2937 9.70847C15.2303 8.76505 16.7592 8.76505 17.7038 9.70126L18.2881 10.2846C18.5122 10.5087 18.8164 10.6375 19.1366 10.6375H19.9611C21.2899 10.6375 22.3705 11.7169 22.3705 13.0452V13.8702C22.3705 14.1895 22.4986 14.4936 22.7227 14.7176L23.2991 15.2938C23.7554 15.7419 24.0035 16.35 24.0035 16.9901C24.0115 17.6303 23.7634 18.2392 23.3151 18.6945L22.7227 19.2867C22.4986 19.5107 22.3705 19.8148 22.3705 20.1357V20.9591C22.3705 22.2874 21.2899 23.3684 19.9611 23.3684H19.1366C18.8164 23.3684 18.5122 23.4957 18.2881 23.7197L17.7118 24.2958C17.2395 24.7687 16.6231 25 16.0068 25C15.3904 25 14.774 24.7687 14.3018 24.3046L13.7174 23.7197C13.4933 23.4957 13.1891 23.3684 12.8689 23.3684H12.0444C10.7156 23.3684 9.63498 22.2874 9.63498 20.9591V20.1357C9.63498 19.8148 9.50691 19.5107 9.28277 19.2787L8.70643 18.7105C7.76988 17.7751 7.76187 16.246 8.69843 15.3026L9.28277 14.7176C9.50691 14.4936 9.63498 14.1895 9.63498 13.8614V13.0452C9.63498 11.7169 10.7156 10.6375 12.0444 10.6375H12.8689C13.1891 10.6375 13.4933 10.5087 13.7174 10.2846L14.2937 9.70847ZM18.064 18.3585C17.6718 18.3585 17.3596 18.6713 17.3596 19.0546C17.3596 19.4467 17.6718 19.7588 18.064 19.7588C18.4482 19.7588 18.7604 19.4467 18.7604 19.0546C18.7604 18.6713 18.4482 18.3585 18.064 18.3585ZM18.5523 14.4456C18.2801 14.1743 17.8399 14.1743 17.5677 14.4456L13.4532 18.5585C13.1811 18.8306 13.1811 19.2787 13.4532 19.5507C13.5813 19.6868 13.7574 19.7588 13.9415 19.7588C14.1337 19.7588 14.3098 19.6868 14.4378 19.5507L18.5523 15.4386C18.8244 15.1665 18.8244 14.7176 18.5523 14.4456ZM13.9495 14.2455C13.5653 14.2455 13.2451 14.5576 13.2451 14.9417C13.2451 15.3346 13.5653 15.6458 13.9495 15.6458C14.3338 15.6458 14.646 15.3346 14.646 14.9417C14.646 14.5576 14.3338 14.2455 13.9495 14.2455Z" fill="#84818A"/>
</svg>
